<?xml version="1.0" encoding="UTF-8"?> <svg xmlns="http://www.w3.org/2000/svg" xmlns:xlink="http://www.w3.org/1999/xlink" width="300" height="300" viewBox="0 0 300 300"><defs><clipPath id="clip-path"><rect id="Rectangle_2" data-name="Rectangle 2" width="278.049" height="242.335"></rect></clipPath></defs><g id="Group_24" data-name="Group 24" transform="translate(-44 -1654)"><g id="Group_7" data-name="Group 7"><rect id="Brooklyn-Brewery-Blk-300x300-2" width="300" height="300" transform="translate(44 1654)" fill="none"></rect><g id="Group_6" data-name="Group 6" transform="translate(54.899 1679.857)"><g id="Group_5" data-name="Group 5" clip-path="url(#clip-path)"><path id="Path_10" data-name="Path 10" d="M132.085,166.96c-6.487,9.19-10.453,17.118-18.562,24.507a145.746,145.746,0,0,1-13.334,10.272c21.084-1.442,46.131-13.695,56.764-27.751-8.29-2.162-15.859-5.767-24.868-7.028m-44.511-6.487c-8.289.541-15.857,2.162-21.263,5.947-2.342,1.622-6.487,5.586-7.748,8.289a12.2,12.2,0,0,0,1.8,12.975c17.12,18.741,39.825-12.073,42.708-26.669a91.57,91.57,0,0,0-15.5-.541m68.657-52.079c-4.5,7.389-6.306,16.94-10.992,26.851-3.6,7.748-.361,6.308,6.126,8.65,7.028,2.342,16.4,5.226,23.607,7.028,12.434-20.723,4.145-39.464-18.741-42.528m115.51,84.155c-15.317,2.883-31.535,1.8-46.672-.18-5.226-.722-19.462-4.145-22.526-4.145-1.8,0-10.272,10.632-12.434,12.434-7.028,5.947-14.6,12.614-22.526,17.12-12.073,6.847-25.409,14.056-39.644,18.381-43.249,13.154-95.508,5.225-117.673-23.066C.9,201.018-4.148,181.556,4.321,163.355c.361-.541,1.262-1.983,1.8-2.883a40.881,40.881,0,0,1,2.342-3.6c19.823-27.751,65.234-30.815,108.3-23.607,5.226-8.829,8.109-19.281,11.893-29.552,7.028-19.462,16.4-37.3,29.914-50.637,4.325-4.325,10.812-9.551,17.479-11.532,7.568-2.162,16.4-.722,16.218,3.784-8.829,6.306-15.678,11.172-21.084,22.705-7.028,15.678,6.308,3.423,11.893,0,8.47-5.226,21.624-22.346,11.893-36.041-10.632-14.957-44.691-10.451-51.537,5.947-2.884,6.848,1.981,9.551,4.684,11.173l1.442.9s-.541,2.523-.9,3.784c-4.5,13.876-22.345,34.96-39.644,21.445a22.788,22.788,0,0,1-8.289-13.695c-1.622-10.993,3.063-18.921,6.306-25.049C123.795,3.876,181.28-14.143,217.861,13.787c22.526,17.12,16.218,52.259-3.423,68.116-7.208,5.767-16.218,9.551-24.868,13.515,17.479,12.615,34.6,28.112,27.751,59.828,0,.18-2.342,10.092-2.342,10.092,16.939,8.289,39.285,10.992,63.071,9.55l-6.308,17.66" transform="translate(0 0)"></path><path id="Path_11" data-name="Path 11" d="M154.451,154.57v-1.981h1.262c.72,0,1.8,0,1.8.9s-.541,1.081-1.261,1.081Zm0,1.622h.722l2.162,3.784H159.5l-2.344-3.964c1.622,0,2.523-.72,2.523-2.342,0-2.162-1.442-2.884-3.784-2.884H152.47v9.19h2.162v-3.784Zm1.442,7.75c4.5,0,8.829-3.064,8.829-8.47S160.4,147,155.893,147s-8.829,3.064-8.829,8.47,4.144,8.47,8.829,8.47m5.947-8.47a5.976,5.976,0,0,1-5.947,6.308c-3.423,0-5.947-2.523-5.947-6.308a5.957,5.957,0,1,1,11.893,0" transform="translate(51.695 51.673)"></path></g></g></g></g></svg> 