<?xml version="1.0" encoding="UTF-8"?> <svg xmlns="http://www.w3.org/2000/svg" width="900" height="600" viewBox="0 0 900 600"><g id="Group_18" data-name="Group 18" transform="translate(-1745 -1504)"><rect id="Forbes-Logo-Grey" width="900" height="600" transform="translate(1745 1504)" fill="none"></rect><path id="result-3" d="M33.079,8.336h7.51a25.3,25.3,0,0,1,13.5,1.713A23.913,23.913,0,0,1,64.9,24.475c1.12,3.162,1.12,3.162,3.821,2.042h2.108V1.485H.141V5.9h2.9a8.432,8.432,0,0,1,6.587,3.1c2.7,4.348,3.162,9.222,3.162,34.584,0,26.943-.593,33.53-3.162,36.89a7.114,7.114,0,0,1-5.468,2.9C.141,84.092.141,84.026.141,85.8a2.635,2.635,0,0,0,0,1.844h44.6a4.15,4.15,0,0,0,0-3.755,22.727,22.727,0,0,0-3.294-.659,22,22,0,0,1-3.557-.725,11.857,11.857,0,0,1-4.809-10.738,153.181,153.181,0,0,1-.988-18.906v-5.2h2.635a35.572,35.572,0,0,1,9.749,1.054,12.187,12.187,0,0,1,5.665,8.7l.593,2.042h4.018V30.272H51.063l-.593,2.833a11.726,11.726,0,0,1-5.995,8.7,11,11,0,0,1-4.809.329H32.091V35.015c0-7.378.4-22.924.659-25.362ZM341.373,60.575a23.913,23.913,0,0,0-13.636-10.342,32.938,32.938,0,0,1-11.792-6.587,6.587,6.587,0,0,1-1.91-5.863,7.839,7.839,0,0,1,2.306-5.533,7.971,7.971,0,0,1,7.9-2.174,16.6,16.6,0,0,1,11.66,12.384c1.054,2.964,1.186,2.964,3.1,2.174l1.186-.461v-16.4l-.856-.4a50.921,50.921,0,0,0-20.224-2.767,23.715,23.715,0,0,0-15.81,6.587,18.181,18.181,0,0,0-5.731,14.229,15.613,15.613,0,0,0,4.479,10.8,26.745,26.745,0,0,0,11.2,6.588c10.211,4.018,13.175,6.587,13.175,11.265a8.7,8.7,0,0,1-6.587,8.63,16.271,16.271,0,0,1-6.983,0,20.289,20.289,0,0,1-12.319-13.9l-.856-2.108h-1.186a5.27,5.27,0,0,0-1.647.4h-.659V85.8h1.12a67.918,67.918,0,0,0,13.7,3.03h6.587a25.823,25.823,0,0,0,8.5-.79A20.487,20.487,0,0,0,341.637,74.87a15.283,15.283,0,0,0,1.186-5.929,16.4,16.4,0,0,0-1.449-8.366ZM279.319,26.518a30.368,30.368,0,0,0-24.835.593A28.919,28.919,0,0,0,239.4,45.094a35.177,35.177,0,0,0-1.779,13.175,36.031,36.031,0,0,0,.593,7.246A29.248,29.248,0,0,0,261.862,89.1a46.112,46.112,0,0,0,11.528,0,31.62,31.62,0,0,0,11.2-4.282,19.762,19.762,0,0,0,6.983-6.587,3.294,3.294,0,0,0-1.581-2.042,8.5,8.5,0,0,0-2.108,1.12,18.84,18.84,0,0,1-11.067,3.1,17.589,17.589,0,0,1-14.031-5.533,15.743,15.743,0,0,1-3.36-4.479A30.631,30.631,0,0,1,256.2,57.215V54.646h36.495V53.329a32.335,32.335,0,0,0,0-3.952,26.35,26.35,0,0,0-13.373-22.859ZM260.94,49.31h-4.611V45.424c1.515-9.947,5.27-15.876,9.881-15.876s6.587,5.863,7.444,16.6v3.03H269.7ZM166.212,24.344a13.834,13.834,0,0,0-6.587,1.383,22.068,22.068,0,0,0-10.211,10.211l-.856,1.581V24.344h-.329c-.79,0-25.164,4.875-25.955,5.2s-.527.4-.527,1.581,0,1.383.527,1.449l2.569.527a4.743,4.743,0,0,1,3.689,1.91c1.647,2.174,1.976,5.995,1.976,22.266a127.2,127.2,0,0,1-.922,21.936A5.4,5.4,0,0,1,125.04,83.5l-2.24.461h-.856V85.8a2.635,2.635,0,0,0,0,1.91h36.824V85.8a4.809,4.809,0,0,0,0-1.91,36.825,36.825,0,0,1-6.587-.856,6.587,6.587,0,0,1-3.491-6.587c-.527-3.821-.79-15.019-.659-23.583s0-9.091.725-9.684a11.858,11.858,0,0,1,7.707-2.437,17.193,17.193,0,0,1,7.51,1.91,9.881,9.881,0,0,0,2.569.988s6.587-15.942,6.587-16.666a7.773,7.773,0,0,0-6.917-2.635Zm-44.4,27.667a29.578,29.578,0,0,0-13.57-23.451A34.255,34.255,0,0,0,77.413,27.7,29.776,29.776,0,0,0,62.986,44.831a44,44,0,0,0,0,25.3A27.6,27.6,0,0,0,70.035,82.05a26.745,26.745,0,0,0,15.217,7.378,66.4,66.4,0,0,0,11.067,0,34.844,34.844,0,0,0,4.018-.856,29.314,29.314,0,0,0,21.014-23.386A57.575,57.575,0,0,0,121.812,52.011Zm-27.4,32.937C87.821,86.925,82.88,80.535,81.233,67.1a123.447,123.447,0,0,1,0-21.146c1.317-10.8,4.677-16.271,9.881-16.271a6.587,6.587,0,0,1,5.533,2.437c4.414,4.414,6.587,13.175,6.587,26.35a48.814,48.814,0,0,1-3.425,21.87,10.013,10.013,0,0,1-5.4,4.282v.329ZM212.983,25.661a21.936,21.936,0,0,0-5.6,0,24.9,24.9,0,0,0-10.342,2.24L195,28.757V14.462A98.219,98.219,0,0,0,195-.03c-.791,0-25.955,4.809-26.35,5.006a2.042,2.042,0,0,0,0,1.515c0,1.383,0,1.317,2.964,1.976a8.5,8.5,0,0,1,2.372.922,8.1,8.1,0,0,1,2.437,4.545,75.425,75.425,0,0,1,.725,15.151V86.925l1.779.4c2.635.593,10.079,1.844,12.516,2.108a92.226,92.226,0,0,0,14.624,0A29.841,29.841,0,0,0,230.7,70.917a45.386,45.386,0,0,0,2.5-10.013,59.287,59.287,0,0,0-.461-13.9,25.362,25.362,0,0,0-19.762-21.343h0ZM195.724,83.829c0-.856-.659-29.71-.527-41.238V33.566l1.91-.461a13.7,13.7,0,0,1,3.887,0,6.587,6.587,0,0,1,4.084.922,19.762,19.762,0,0,1,8.5,15.019,72.461,72.461,0,0,1,0,14.427,31.686,31.686,0,0,1-7.641,18.906,9.156,9.156,0,0,1-4.677,2.371,11.726,11.726,0,0,1-4.018,0c-1.252,0-1.252-.4-1.252-.922h-.264Z" transform="translate(2024.025 1759.03)" fill="#979797"></path></g></svg> 