<?xml version="1.0" encoding="UTF-8"?> <svg xmlns="http://www.w3.org/2000/svg" width="300" height="300" viewBox="0 0 300 300"><g id="Group_26" data-name="Group 26" transform="translate(-2712 -1654)"><g id="Group_25" data-name="Group 25" transform="translate(2301)"><g id="Group_4" data-name="Group 4"><rect id="Choice-Hotel-Blk-300x300-1" width="300" height="300" transform="translate(411 1654)" fill="none"></rect></g></g><g id="result-4" transform="translate(2742.696 1684.696)"><path id="Path_2" data-name="Path 2" d="M125.572,34.2A135.935,135.935,0,0,0,123.421,10H12V55.816H75.669A54.552,54.552,0,0,1,51.9,91.415v29.791H90.3c22.37-20.649,35.276-50.978,35.276-87.007Z" transform="translate(107.304 87.794)" fill="#1b1b1d"></path><path id="Path_3" data-name="Path 3" d="M107.794,109.819c31.942,0,58.722-10.54,78.3-28.608l-38.4-29.791c-10.54,7.1-23.984,11.4-39.9,11.4-30.759,0-56.894-20.757-66.25-48.72H2.18V44.644A118.194,118.194,0,0,0,107.794,109.819Z" transform="translate(11.511 127.79)" fill="#1b1b1d"></path><path id="Path_4" data-name="Path 4" d="M53.054,82.57A70.893,70.893,0,0,1,49.29,60.092a70.893,70.893,0,0,1,3.764-22.478V7.07H13.691a117.107,117.107,0,0,0,0,106.044L44.342,89.238Z" transform="translate(0 59.212)" fill="#1b1b1d"></path><path id="Path_5" data-name="Path 5" d="M107.794,48.107c17.423,0,32.91,6.023,45.278,17.638L186.95,31.867C166.408,12.723,139.736,1,107.794,1A118.1,118.1,0,0,0,2.18,66.282L41.543,96.827c9.357-27.963,35.491-48.72,66.25-48.72Z" transform="translate(11.511)" fill="#1b1b1d"></path><path id="Path_6" data-name="Path 6" d="M1,1H237.609V237.609H1Z" fill="none"></path></g></g></svg> 