<?xml version="1.0" encoding="UTF-8"?> <svg xmlns="http://www.w3.org/2000/svg" width="900" height="600" viewBox="0 0 900 600"><g id="Group_19" data-name="Group 19" transform="translate(-3079 -1504)"><g id="Group_11" data-name="Group 11"><rect id="Inc-Logo-Grey" width="900" height="600" transform="translate(3079 1504)" fill="none"></rect><g id="result-7" transform="translate(3419 1766)"><rect id="Rectangle_3" data-name="Rectangle 3" width="220" height="76" fill="none"></rect><g id="Group_10" data-name="Group 10"><g id="Group_9" data-name="Group 9"><path id="Path_16" data-name="Path 16" d="M0,17.5H9.7V58.4H0V74.6H51.9V58.4H42.1V17.5h9.8V0H0Z" fill="#969696"></path><path id="Path_17" data-name="Path 17" d="M131.8,58.4V36.9c0-13.7-10-18.7-22.4-18.7-8.8,0-15.5,2.4-21.3,9.1a10.992,10.992,0,0,1-1.5,1.6V17.6h-32V33.9h7.3V58.4H54.6V74.7H95.2V58.4H87.5V44.3A10.171,10.171,0,0,1,98,33.9c4.7,0,8.4,2.3,8.4,7.4v17H98.9V74.6h39.7v-16c0-.1-.1-.2-.1-.3h-6.7Z" fill="#969696"></path><path id="Path_18" data-name="Path 18" d="M203.2,53.6H181.4c0,6-4.4,8.8-9.3,8.8-9.4,0-10.2-7.9-10.2-15.4v-.2c0-7.5.7-15.4,10.2-15.4,7.4,0,8.7,6.4,8.9,12.5l21.9-2.4c-2.3-22.3-24.3-23.7-29.8-23.7h-1.2c-18.1,0-35.9,8.9-35.9,29.1a27.288,27.288,0,0,0,2.3,11.4h.1v.3c5.4,12,19.4,17.4,33.5,17.4,11.5,0,27.6-2.8,31.2-20.5l.1-1.9Z" fill="#969696"></path><circle id="Ellipse_1" data-name="Ellipse 1" cx="9.2" cy="9.2" r="9.2" transform="translate(201.5 56.5)" fill="#969696"></circle></g></g></g></g></g></svg> 