<?xml version="1.0" encoding="UTF-8"?> <svg xmlns="http://www.w3.org/2000/svg" xmlns:xlink="http://www.w3.org/1999/xlink" width="900" height="600" viewBox="0 0 900 600"><defs><clipPath id="clip-path"><rect id="Rectangle_4" data-name="Rectangle 4" width="178.6" height="96.48" fill="#979797"></rect></clipPath></defs><g id="Group_20" data-name="Group 20" transform="translate(-4780 -1504)"><g id="Group_16" data-name="Group 16"><rect id="WSJ-Logo-Grey" width="900" height="600" transform="translate(4780 1504)" fill="none"></rect><g id="Group_15" data-name="Group 15" transform="translate(5141 1756)"><g id="Group_14" data-name="Group 14" clip-path="url(#clip-path)"><path id="Path_20" data-name="Path 20" d="M5.16,8.555.38,7.806H0V4.126H25.77v3.68h-.716c-2.954-.365-4.425.748-4.425,3.68v1.845L31.673,70.052l6.631-37.2L34.626,14.073c-.741-4.786-2.574-6.631-5.9-6.266h-.38V4.126H53.392v3.68h-.355c-4.05-.365-5.9,1.112-5.9,4.427l11.05,57.447h.729l9.953-54.5V12.967c0-4.048-1.851-5.525-5.9-5.161h-1.1V4.126H83.581v3.68H82.49l-5.159.748-3.31,7.353L56.714,98.029H51.566L40.884,44.26,29.828,98.029H24.306L7.733,14.073Z" transform="translate(0 -1.926)" fill="#979797"></path><path id="Path_21" data-name="Path 21" d="M194.4,1.1V33.5H191.09V32.4q0-27.615-15.457-27.615c-7-.365-10.676,3.315-10.321,11.418A20.2,20.2,0,0,0,169,27.981l11.044,9.947,13.625,13.627c3.683,5.515,5.522,12.513,5.522,20.246,0,15.472-7.36,23.2-21.727,23.2-5.522,0-11.044-1.845-16.565-5.9l-2.219,5.539H156.1V61.862h2.955v1.1c0,9.938,2.2,17.307,6.257,22.461,3.322,3.679,6.994,5.525,11.049,5.525,8.476,0,12.889-4.784,12.889-14.737q0-13.8-16.572-26.507c-11.424-8.473-17.308-17.678-17.308-28.357-.368-6.635,1.852-11.788,5.884-15.468C164.578,1.832,169,0,174.519,0s10.321,1.831,15.1,5.883L192.194,1.1Z" transform="translate(-72.514 0)" fill="#979797"></path><path id="Path_22" data-name="Path 22" d="M264.077,74.832c0,5.519-2.575,8.467-8.1,8.837l2.567,7a9.277,9.277,0,0,0,7.373,3.309l6.625-2.947,1.845-10.3v-67.4c-.375-3.677-1.845-5.518-5.149-5.518H266.65V4.126H295V7.813h-2.574c-3.309,0-5.16,1.842-4.78,5.518V78.144c-.38,13.263-7.38,19.885-21,20.262-4.793-.377-8.851-1.839-11.424-5.164-4.045-4.051-5.883-8.84-5.883-15.1l2.948-7.364,4.787-2.577c4.044,0,6.625,2.21,7,6.628" transform="translate(-116.401 -1.926)" fill="#979797"></path></g></g></g></g></svg> 