<svg xmlns="http://www.w3.org/2000/svg" width="151" height="151"><g fill="#FFF" fill-rule="nonzero"><path d="m43.307 7.838 6.419 13.505 2.009-.954-6.42-13.506zM55.507 3.651l-5.59 1.595 4.102 14.38 5.336-1.522c4.158-1.187 6.116-4.885 4.885-9.2-1.226-4.297-4.73-6.394-8.733-5.253Zm3.577 12.387-3.492.997L52.62 6.618l3.198-.912c2.889-.804 5.405.727 6.283 3.807.89 3.12-.29 5.747-3.017 6.525ZM70.073 3.111l8.887-.381-.09-2.058-11.106.476.64 14.939 11.107-.476-.088-2.058-8.886.381-.21-4.912 8.356-.358-.088-2.059-8.357.358zM92.706 18.318l2.238.46-2.063-15.69-3.417-.703-8.088 13.603 2.218.456 2.266-3.824 6.294 1.294.552 4.404Zm-5.825-7.425 3.671-6.201.4.082.925 7.147-4.996-1.028ZM107.695 7.875c-2.66-1.245-5.153-.587-6.191 1.63-1.133 2.42-.138 4.192 2.532 6.186 1.926 1.42 3.05 2.531 2.289 4.157-.606 1.293-2.252 1.49-3.712.808-2.106-.986-2.819-2.784-2.209-4.616l-2.244-.307c-.872 2.633.493 5.299 3.597 6.752 2.771 1.297 5.39.563 6.488-1.783 1.168-2.494.216-4.359-2.508-6.287-2.092-1.498-2.97-2.652-2.33-4.02.562-1.2 2.036-1.366 3.44-.709 1.792.839 2.422 2.237 1.92 3.984l2.057.513c.801-2.53-.265-4.967-3.13-6.308ZM135.515 31.433l-11.945 6.546-.277-.3 8.488-10.295-2.683-2.91-11.115 7.447-.277-.3 7.658-11.196-1.576-1.71-8.463 12.881 2.559 2.775 11.007-7.292.277.3-8.325 10.201 2.559 2.775 13.689-7.213zM139.676 55.013c4.293-1.993 5.905-5.98 4.05-9.977-1.856-3.997-5.942-5.338-10.235-3.345-4.293 1.993-5.905 5.98-4.05 9.977 1.856 3.996 5.943 5.338 10.235 3.345Zm-5.257-11.324c3.164-1.469 6.14-.58 7.438 2.214 1.297 2.794.056 5.642-3.108 7.111-3.164 1.47-6.141.58-7.439-2.214-1.297-2.794-.055-5.642 3.109-7.111ZM141.378 66.89l.401-.074c.567 2.302 2.154 3.609 4.301 3.216 2.569-.47 3.732-2.612 3.203-5.502l-1.282-7.003-14.709 2.693.4 2.187 5.82-1.065.654 3.571c.404 2.208.148 3.416-1.277 3.677l-3.933.72.4 2.187 3.773-.69c1.927-.353 2.62-1.89 2.249-3.917Zm5.878-1.989c.283 1.545-.433 2.734-1.757 2.977-1.505.275-2.776-.55-3.059-2.095l-.881-4.816 4.816-.882.881 4.816ZM149.73 85.606l.525-11.31-2.058-.095-.211 4.544-12.88-.596-.101 2.201 12.879.596-.211 4.565zM146.128 100.206l-6.357-1.732 1.983-7.282 6.358 1.731.584-2.145-14.428-3.93-.584 2.146 6.239 1.699-1.983 7.283-6.24-1.7-.584 2.146 14.428 3.929zM128.12 116.4l.335.233c-1.233 2.025-1.04 4.072.753 5.317 2.145 1.49 4.484.804 6.16-1.61l4.06-5.847-12.282-8.53-1.268 1.827 4.86 3.374-2.072 2.983c-1.28 1.843-2.317 2.514-3.507 1.688l-3.284-2.281-1.268 1.826 3.15 2.188c1.609 1.117 3.187.525 4.363-1.168Zm5.555 2.765c-.896 1.29-2.243 1.622-3.35.854-1.256-.873-1.567-2.356-.671-3.646l2.792-4.022 4.022 2.793-2.793 4.021ZM110.33 124.4l-1.727 1.497 13.71 7.906 2.636-2.285-5.88-14.693-1.71 1.483 1.658 4.124-4.856 4.209-3.831-2.24Zm9.436-.107 2.69 6.685-.308.268-6.235-3.612 3.853-3.34ZM105.75 129.522l6.113 11.536 1.965-1.041-7.002-13.213-9.211 4.881.889 1.677zM94.038 134.64l3.599 12.55 2.137-.613-4.121-14.374-10.021 2.874.523 1.824zM78.164 143.787l.407-.021 3.987 6.413 2.526-.13-5.743-8.774-.303-5.888-2.2.114.303 5.887-4.79 9.317 2.527-.13zM68.533 150.461l1.352-14.891-2.215-.202-1.352 14.892zM51.357 146.691l3.323-12.795.395.103 2.383 14.277 4.087 1.061 3.76-14.472-2.153-.559-3.323 12.794-.395-.102-2.521-14.313-3.93-1.021-3.76 14.473zM44.038 128.439c2.624 1.494 3.188 4.585 1.502 7.545-1.726 3.032-4.632 4.053-7.256 2.56-1.56-.889-2.565-2.752-2.09-4.782l-2.08-.716c-.598 2.946.651 5.865 3.15 7.288 3.777 2.15 7.848.853 10.19-3.26 2.322-4.077 1.486-8.215-2.148-10.285-2.447-1.393-4.728-.602-5.855.47l-.354-.202 1.524-2.677-1.649-.939-4.108 7.215 7.48 4.26.94-1.648-5.815-3.311.202-.355c1.221-2.145 3.779-2.637 6.367-1.163ZM25.599 109.137l-1.44-1.775-8.353 13.441 2.197 2.71 14.879-5.39-1.426-1.76-4.177 1.521-4.046-4.992 2.366-3.755Zm-.204 9.435-6.77 2.468-.258-.317 3.816-6.113 3.212 3.962ZM13.78 101.176l-.368.174c-1.141-2.078-3.011-2.93-4.985-1.998-2.36 1.117-2.932 3.486-1.676 6.141l3.044 6.437 13.517-6.393-.95-2.01-5.348 2.529-1.553-3.283c-.96-2.028-1.023-3.262.286-3.881l3.614-1.71-.95-2.01-3.467 1.64c-1.77.837-2.044 2.501-1.163 4.364Zm-5.167 3.437c-.671-1.42-.286-2.753.931-3.33 1.383-.653 2.824-.184 3.495 1.236l2.094 4.426-4.426 2.094-2.094-4.426ZM7.909 79.946c-4.652.872-7.199 4.338-6.387 8.67.812 4.33 4.44 6.639 9.092 5.767 4.652-.872 7.199-4.338 6.387-8.669-.811-4.33-4.44-6.64-9.092-5.768Zm2.3 12.271c-3.43.643-6.095-.954-6.662-3.981-.567-3.028 1.339-5.482 4.768-6.124 3.428-.643 6.094.954 6.661 3.982.567 3.027-1.339 5.48-4.768 6.123ZM1.155 65.498l8.771.608c2.83.195 4.431 1.86 4.264 4.282-.16 2.3-1.97 3.647-4.8 3.451l-8.77-.607-.154 2.218 8.771.607c3.928.272 6.759-1.924 7.008-5.527.258-3.724-2.237-6.37-6.165-6.643l-8.772-.607-.153 2.218ZM6.015 47.394l12.568 4.097-.126.388-14.395 1.508-1.31 4.015 14.218 4.634.689-2.114L5.09 55.825l.126-.388 14.44-1.644 1.258-3.86-14.217-4.634zM12.736 34.944l-3.125 4.902 12.608 8.04 2.983-4.68c2.325-3.646 1.337-7.712-2.447-10.125-3.768-2.401-7.781-1.646-10.019 1.863Zm10.893 6.897-1.952 3.062-9.134-5.824 1.788-2.804c1.63-2.517 4.528-3.04 7.228-1.319 2.735 1.744 3.595 4.494 2.07 6.885ZM19.977 25.61l.816.885 1.455-1.34 4.007 4.353.93-.857-4.006-4.353 1.47-1.354-.814-.885-3.858 3.55Zm8.345-7.682 3.341 5.436-.15.139-5.187-3.738-1.906 1.755 4.822 5.238.946-.87-4.256-4.623.135-.124 5.246 3.71 1.711-1.575-3.295-5.507.165-.152 4.256 4.623.93-.857-4.822-5.238-1.936 1.783Z"/></g></svg>