<svg xmlns="http://www.w3.org/2000/svg" xmlns:xlink="http://www.w3.org/1999/xlink" viewBox="0 0 102 29" role="presentation" aria-hidden="true">
  <defs>
    <path id="a" d="M0 0h5.843v5.866H0z"/>
  </defs>
  <g fill="none" fill-rule="evenodd">
    <path fill="#FFF" d="M42.108 25.233c-1.365 0-5.82-.528-5.82-7.32 0-6.6 4.07-7.318 5.82-7.318 1.366 0 5.82.527 5.82 7.319 0 5.401-3.135 7.319-5.82 7.319m6.979-15.749c-1.836-1.714-4.314-2.658-6.979-2.658s-5.143.943-6.978 2.658c-2.132 1.99-3.258 4.904-3.258 8.429 0 3.525 1.126 6.437 3.258 8.429C36.965 28.056 39.443 29 42.108 29s5.143-.943 6.979-2.658c2.132-1.992 3.258-4.904 3.258-8.43 0-3.524-1.126-6.437-3.258-8.428m23.641 14.973c-.59-.595-.583-1.697-.578-2.357V10.67h4.75V7.167h-4.75V1.994h-4.188v5.173h-7.925V1.994H55.85v5.173h-3.816v3.5h6.75l-2.934 1.837v10.135c0 4.327 2.81 5.862 5.216 5.862h3.436v-3.614h-2.669c-.533 0-.932-.141-1.218-.43-.591-.595-.583-1.697-.58-2.357V10.668h10.908l-2.981 1.837v10.134c0 4.327 2.81 5.862 5.217 5.862h3.439v-3.614h-2.672c-.534 0-.933-.141-1.219-.43"/>
    <path fill="#FFF" d="M86.908 25.233c-1.365 0-5.82-.528-5.82-7.32 0-6.6 4.07-7.318 5.82-7.318 1.365 0 5.82.527 5.82 7.319 0 5.401-3.136 7.319-5.82 7.319m6.979-15.749c-1.836-1.714-4.314-2.658-6.979-2.658s-5.144.943-6.974 2.658c-2.132 1.992-3.259 4.904-3.259 8.429 0 3.525 1.131 6.437 3.26 8.429C81.768 28.056 84.247 29 86.907 29s5.143-.943 6.979-2.658c2.131-1.992 3.258-4.904 3.258-8.43 0-3.524-1.127-6.437-3.258-8.428"/>
    <g transform="translate(96.157 1.994)">
      <mask id="b" fill="#fff">
        <use xlink:href="#a"/>
      </mask>
      <path fill="#FFF" d="M2.836 1.779H2.42v.928h.452c.492 0 .688-.156.688-.46 0-.378-.29-.472-.726-.472l.002.004Zm.18 1.425H2.42v1.182h-.639V1.274h.952c.912 0 1.465.164 1.465.968 0 .343-.164.647-.565.827l.718 1.32h-.706l-.63-1.185Zm-.094 2.138c1.34 0 2.339-.96 2.339-2.395 0-1.451-.998-2.419-2.34-2.419-1.31 0-2.347.968-2.347 2.419 0 1.435 1.037 2.395 2.348 2.395Zm0-5.342c1.614 0 2.921 1.194 2.921 2.942 0 1.733-1.302 2.924-2.921 2.924C1.302 5.866 0 4.679 0 2.947 0 1.199 1.302.005 2.922.005V0Z" mask="url(#b)"/>
    </g>
    <path fill="#FFF" d="m21.622 0-6.828 22.31L7.965 0H0v28.501h4.109L4.102 1.208l8.366 27.293h4.651l8.366-27.293-.007 27.293h4.109V0z"/>
  </g>
</svg>