<svg width="1128" height="157" viewBox="0 0 1128 157" fill="none" xmlns="http://www.w3.org/2000/svg">
<path d="M124.66 112.2C124.66 88.22 110.36 73.26 81.76 66.66L59.76 61.38C37.32 56.1 29.62 51.26 29.62 40.92C29.62 27.94 42.16 20.46 59.54 20.46C77.36 20.46 92.54 29.26 94.52 47.3H120.26C117.62 21.12 97.82 0 59.1 0C28.52 0 3.44 17.16 3.44 42.68C3.44 63.8 18.18 77.66 47.88 84.7L69.88 89.76C89.46 94.38 98.7 100.98 98.7 113.3C98.7 127.38 84.4 135.74 65.04 135.74C43.7 135.74 27.64 120.34 26.1 100.54H0.360001C2.78 128.04 24.56 156.2 64.82 156.2C100.02 156.2 124.66 137.5 124.66 112.2Z" fill="white"/>
<path d="M236.118 99C236.118 69.3 215.658 41.8 182.217 41.8C148.777 41.8 128.318 69.3 128.318 99C128.318 128.7 148.777 156.2 182.217 156.2C215.658 156.2 236.118 128.7 236.118 99ZM153.618 99C153.618 75.46 163.957 59.62 182.217 59.62C200.698 59.62 211.038 75.46 211.038 99C211.038 122.32 200.698 138.38 182.217 138.38C163.957 138.38 153.618 122.32 153.618 99Z" fill="white"/>
<path d="M270.297 88C270.297 69.96 276.897 59.84 291.857 59.84C306.157 59.84 313.197 69.08 313.197 89.54V154H337.177V88C337.177 69.96 343.557 59.84 358.517 59.84C373.037 59.84 379.857 69.08 379.857 89.54V154H403.837V82.5C403.837 58.3 391.957 41.8 367.537 41.8C351.257 41.8 340.037 50.16 335.197 65.56H334.757C330.357 51.04 318.917 41.8 300.877 41.8C285.037 41.8 274.697 50.16 270.077 65.56H269.637V44H246.317V154H270.297V88Z" fill="white"/>
<path d="M484.511 132.44H485.171V154H508.271V86.46C508.271 56.76 490.451 41.8 462.511 41.8C434.131 41.8 416.971 57.42 416.091 78.76H440.071C440.731 66.44 448.651 59.62 462.071 59.62C475.931 59.62 484.291 67.32 484.291 82.06V85.36L456.351 88.22C431.931 90.86 412.131 99.22 412.131 121.88C412.131 141.9 428.191 156.2 451.071 156.2C467.571 156.2 479.891 147.62 484.511 132.44ZM437.431 122.1C437.431 111.54 445.791 106.26 460.311 104.72L484.291 102.08V105.82C484.291 126.72 474.391 138.38 457.231 138.38C446.671 138.38 437.431 132.44 437.431 122.1Z" fill="white"/>
<path d="M609.731 122.32C609.731 105.82 601.811 93.94 578.051 88.66L563.091 85.36C549.011 82.06 542.851 79.64 542.851 72.38C542.851 64.24 550.991 59.62 561.551 59.62C572.331 59.62 582.231 63.8 583.771 76.56H607.531C605.991 56.54 587.511 41.8 561.551 41.8C538.011 41.8 518.651 54.34 518.651 74.36C518.651 91.74 531.411 102.08 552.971 106.7L567.931 110C580.691 112.86 585.751 117.92 585.751 124.08C585.751 133.54 575.631 138.38 564.851 138.38C552.971 138.38 541.751 130.46 540.431 116.38H516.671C518.211 136.62 534.491 156.2 564.631 156.2C589.931 156.2 609.731 143.66 609.731 122.32Z" fill="white"/>
<path d="M684.986 132.44H685.646V154H708.746V86.46C708.746 56.76 690.926 41.8 662.986 41.8C634.606 41.8 617.446 57.42 616.566 78.76H640.546C641.206 66.44 649.126 59.62 662.546 59.62C676.406 59.62 684.766 67.32 684.766 82.06V85.36L656.826 88.22C632.406 90.86 612.606 99.22 612.606 121.88C612.606 141.9 628.666 156.2 651.546 156.2C668.046 156.2 680.366 147.62 684.986 132.44ZM637.906 122.1C637.906 111.54 646.266 106.26 660.786 104.72L684.766 102.08V105.82C684.766 126.72 674.866 138.38 657.706 138.38C647.146 138.38 637.906 132.44 637.906 122.1Z" fill="white"/>
<path d="M781.202 154L801.002 51.04L820.802 154H864.582L887.902 44H863.922L841.922 146.96L822.122 44H779.882L760.082 146.96L738.302 44H714.102L737.422 154H781.202Z" fill="white"/>
<path d="M959.797 132.44H960.457V154H983.557V86.46C983.557 56.76 965.737 41.8 937.797 41.8C909.417 41.8 892.257 57.42 891.377 78.76H915.357C916.017 66.44 923.937 59.62 937.357 59.62C951.217 59.62 959.577 67.32 959.577 82.06V85.36L931.637 88.22C907.217 90.86 887.417 99.22 887.417 121.88C887.417 141.9 903.477 156.2 926.357 156.2C942.857 156.2 955.177 147.62 959.797 132.44ZM912.717 122.1C912.717 111.54 921.077 106.26 935.597 104.72L959.577 102.08V105.82C959.577 126.72 949.677 138.38 932.517 138.38C921.957 138.38 912.717 132.44 912.717 122.1Z" fill="white"/>
<path d="M1022.22 15.9538C1022.08 16.0201 1022 16.1407 1022 16.2714V80.4386C1022 80.5693 1022.08 80.6908 1022.22 80.7562L1074.45 105.95C1074.52 105.983 1074.59 106 1074.67 106C1074.74 106 1074.82 105.983 1074.89 105.95L1127.12 80.7562C1127.25 80.6908 1127.34 80.5702 1127.34 80.4386V16.2714C1127.34 16.1407 1127.25 16.0192 1127.12 15.9538C1126.98 15.8894 1126.81 15.8884 1126.68 15.9547L1074.67 41.0405L1022.66 15.9547C1022.53 15.8884 1022.36 15.8894 1022.22 15.9538H1022.22ZM1075.11 41.6758L1126.46 16.9082V80.227L1075.11 104.995V41.6758ZM1022.88 16.9082L1074.23 41.6758V104.995L1022.88 80.227V16.9082Z" fill="white"/>
<path d="M1123.36 11.8842L1074.67 35.3707L1025.98 11.8842C1025.77 11.7829 1025.5 11.8409 1025.37 12.0176C1025.25 12.1925 1025.32 12.4162 1025.54 12.5184L1074.45 36.1124C1074.51 36.1456 1074.59 36.1621 1074.67 36.1621C1074.74 36.1621 1074.82 36.1456 1074.89 36.1124L1123.8 12.5184C1124.01 12.4172 1124.08 12.1925 1123.96 12.0176C1123.83 11.8418 1123.56 11.7829 1123.36 11.8842H1123.36Z" fill="white"/>
<path d="M1123.96 6.1841C1123.84 6.00735 1123.57 5.94936 1123.36 6.05062L1074.67 29.5362L1025.97 6.04968C1025.77 5.94842 1025.5 6.00641 1025.37 6.18316C1025.25 6.35806 1025.32 6.58175 1025.53 6.68393L1074.45 30.278C1074.51 30.3111 1074.59 30.3277 1074.67 30.3277C1074.74 30.3277 1074.82 30.3111 1074.89 30.278L1123.8 6.68393C1124.01 6.58267 1124.08 6.35806 1123.96 6.18407L1123.96 6.1841Z" fill="white"/>
</svg>
