<svg width="1127" height="157" viewBox="0 0 1127 157" fill="none" xmlns="http://www.w3.org/2000/svg">
<path d="M124.3 112.2C124.3 88.22 110 73.26 81.4 66.66L59.4 61.38C36.96 56.1 29.26 51.26 29.26 40.92C29.26 27.94 41.8 20.46 59.18 20.46C77 20.46 92.18 29.26 94.16 47.3H119.9C117.26 21.12 97.46 0 58.74 0C28.16 0 3.08 17.16 3.08 42.68C3.08 63.8 17.82 77.66 47.52 84.7L69.52 89.76C89.1 94.38 98.34 100.98 98.34 113.3C98.34 127.38 84.04 135.74 64.68 135.74C43.34 135.74 27.28 120.34 25.74 100.54H0C2.42 128.04 24.2 156.2 64.46 156.2C99.66 156.2 124.3 137.5 124.3 112.2Z" fill="black"/>
<path d="M235.758 99C235.758 69.3 215.298 41.8 181.857 41.8C148.417 41.8 127.958 69.3 127.958 99C127.958 128.7 148.417 156.2 181.857 156.2C215.298 156.2 235.758 128.7 235.758 99ZM153.258 99C153.258 75.46 163.597 59.62 181.857 59.62C200.338 59.62 210.678 75.46 210.678 99C210.678 122.32 200.338 138.38 181.857 138.38C163.597 138.38 153.258 122.32 153.258 99Z" fill="black"/>
<path d="M269.937 88C269.937 69.96 276.537 59.84 291.497 59.84C305.797 59.84 312.837 69.08 312.837 89.54V154H336.817V88C336.817 69.96 343.197 59.84 358.157 59.84C372.677 59.84 379.497 69.08 379.497 89.54V154H403.477V82.5C403.477 58.3 391.597 41.8 367.177 41.8C350.897 41.8 339.677 50.16 334.837 65.56H334.397C329.997 51.04 318.557 41.8 300.517 41.8C284.677 41.8 274.337 50.16 269.717 65.56H269.277V44H245.957V154H269.937V88Z" fill="black"/>
<path d="M484.151 132.44H484.811V154H507.911V86.46C507.911 56.76 490.091 41.8 462.151 41.8C433.771 41.8 416.611 57.42 415.731 78.76H439.711C440.371 66.44 448.291 59.62 461.711 59.62C475.571 59.62 483.931 67.32 483.931 82.06V85.36L455.991 88.22C431.571 90.86 411.771 99.22 411.771 121.88C411.771 141.9 427.831 156.2 450.711 156.2C467.211 156.2 479.531 147.62 484.151 132.44ZM437.071 122.1C437.071 111.54 445.431 106.26 459.951 104.72L483.931 102.08V105.82C483.931 126.72 474.031 138.38 456.871 138.38C446.311 138.38 437.071 132.44 437.071 122.1Z" fill="black"/>
<path d="M609.371 122.32C609.371 105.82 601.451 93.94 577.691 88.66L562.731 85.36C548.651 82.06 542.491 79.64 542.491 72.38C542.491 64.24 550.631 59.62 561.191 59.62C571.971 59.62 581.871 63.8 583.411 76.56H607.171C605.631 56.54 587.151 41.8 561.191 41.8C537.651 41.8 518.291 54.34 518.291 74.36C518.291 91.74 531.051 102.08 552.611 106.7L567.571 110C580.331 112.86 585.391 117.92 585.391 124.08C585.391 133.54 575.271 138.38 564.491 138.38C552.611 138.38 541.391 130.46 540.071 116.38H516.311C517.851 136.62 534.131 156.2 564.271 156.2C589.571 156.2 609.371 143.66 609.371 122.32Z" fill="black"/>
<path d="M684.626 132.44H685.286V154H708.386V86.46C708.386 56.76 690.566 41.8 662.626 41.8C634.246 41.8 617.086 57.42 616.206 78.76H640.186C640.846 66.44 648.766 59.62 662.186 59.62C676.046 59.62 684.406 67.32 684.406 82.06V85.36L656.466 88.22C632.046 90.86 612.246 99.22 612.246 121.88C612.246 141.9 628.306 156.2 651.186 156.2C667.686 156.2 680.006 147.62 684.626 132.44ZM637.546 122.1C637.546 111.54 645.906 106.26 660.426 104.72L684.406 102.08V105.82C684.406 126.72 674.506 138.38 657.346 138.38C646.786 138.38 637.546 132.44 637.546 122.1Z" fill="black"/>
<path d="M780.842 154L800.642 51.04L820.442 154H864.222L887.542 44H863.562L841.562 146.96L821.762 44H779.522L759.722 146.96L737.942 44H713.742L737.062 154H780.842Z" fill="black"/>
<path d="M959.437 132.44H960.097V154H983.197V86.46C983.197 56.76 965.377 41.8 937.437 41.8C909.057 41.8 891.897 57.42 891.017 78.76H914.997C915.657 66.44 923.577 59.62 936.997 59.62C950.857 59.62 959.217 67.32 959.217 82.06V85.36L931.277 88.22C906.857 90.86 887.057 99.22 887.057 121.88C887.057 141.9 903.117 156.2 925.997 156.2C942.497 156.2 954.817 147.62 959.437 132.44ZM912.357 122.1C912.357 111.54 920.717 106.26 935.237 104.72L959.217 102.08V105.82C959.217 126.72 949.317 138.38 932.157 138.38C921.597 138.38 912.357 132.44 912.357 122.1Z" fill="black"/>
<path d="M1021.86 15.9538C1021.72 16.0201 1021.64 16.1407 1021.64 16.2714V80.4386C1021.64 80.5693 1021.72 80.6908 1021.86 80.7562L1074.09 105.95C1074.16 105.983 1074.23 106 1074.31 106C1074.38 106 1074.46 105.983 1074.53 105.95L1126.76 80.7562C1126.89 80.6908 1126.98 80.5702 1126.98 80.4386V16.2714C1126.98 16.1407 1126.89 16.0192 1126.76 15.9538C1126.62 15.8894 1126.45 15.8884 1126.32 15.9547L1074.31 41.0405L1022.3 15.9547C1022.17 15.8884 1022 15.8894 1021.86 15.9538H1021.86ZM1074.75 41.6758L1126.1 16.9082V80.227L1074.75 104.995V41.6758ZM1022.52 16.9082L1073.87 41.6758V104.995L1022.52 80.227V16.9082Z" fill="black"/>
<path d="M1123 11.8842L1074.31 35.3707L1025.62 11.8842C1025.41 11.7829 1025.14 11.8409 1025.01 12.0176C1024.89 12.1925 1024.96 12.4162 1025.18 12.5184L1074.09 36.1124C1074.15 36.1456 1074.23 36.1621 1074.31 36.1621C1074.38 36.1621 1074.46 36.1456 1074.53 36.1124L1123.44 12.5184C1123.65 12.4172 1123.72 12.1925 1123.6 12.0176C1123.47 11.8418 1123.2 11.7829 1123 11.8842H1123Z" fill="black"/>
<path d="M1123.6 6.1841C1123.48 6.00735 1123.21 5.94936 1123 6.05062L1074.31 29.5362L1025.61 6.04968C1025.41 5.94842 1025.14 6.00641 1025.01 6.18316C1024.89 6.35806 1024.96 6.58175 1025.17 6.68393L1074.09 30.278C1074.15 30.3111 1074.23 30.3277 1074.31 30.3277C1074.38 30.3277 1074.46 30.3111 1074.53 30.278L1123.44 6.68393C1123.65 6.58267 1123.72 6.35806 1123.6 6.18407L1123.6 6.1841Z" fill="black"/>
</svg>
