<?xml version="1.0" encoding="utf-8"?>
<!-- Generator: Adobe Illustrator 25.3.0, SVG Export Plug-In . SVG Version: 6.00 Build 0)  -->
<svg version="1.1" id="Layer_1" xmlns="http://www.w3.org/2000/svg" xmlns:xlink="http://www.w3.org/1999/xlink" x="0px" y="0px"
	 viewBox="0 0 198 198" style="enable-background:new 0 0 198 198;" xml:space="preserve">
<style type="text/css">
	.st0{fill:#FFFFFF;}
</style>
<path class="st0" d="M148.5,132.1c-1.1-0.8-2.2-1.6-3.6-2.4c1.5,0.4,2.9,0.7,4.2,0.8l42.2,3.1l6.2-16.6l-62.3-2.4L128,134l47.4,42.5
	l6.2-16.7L148.5,132.1z"/>
<path class="st0" d="M119.3,61.4c-0.8,1.1-1.6,2.3-2.3,3.8c0.4-1.6,0.6-3,0.8-4.3l3-43.9l-16-6.5l-2.3,64.8l18.7,7.5L162,33.5
	l-16.1-6.4L119.3,61.4z"/>
<path class="st0" d="M148,90.5c-1.3,0.2-2.7,0.4-4.2,1c1.3-0.8,2.5-1.7,3.5-2.5l32-28.9l-7-16.3l-45.7,44.1l8.1,19l62.5-4.7l-7-16.5
	L148,90.5z"/>
<path class="st0" d="M48.4,132.3c1.1-0.8,2.2-1.6,3.6-2.4c-1.5,0.3-2.9,0.7-4.2,0.7l-42.2,2.9l-6.1-16.7l62.3-2l7.1,19.4l-47.6,42.3
	l-6.1-16.8L48.4,132.3z"/>
<path class="st0" d="M78,61.8c0.8,1.1,1.6,2.3,2.3,3.8c-0.3-1.6-0.6-3-0.7-4.3l-2.7-43.9L93,11l1.9,64.8l-18.7,7.3L35.5,33.5
	l16.2-6.4L78,61.8z"/>
<path class="st0" d="M49.2,90.6c1.3,0.2,2.7,0.5,4.2,1c-1.3-0.8-2.5-1.7-3.5-2.5L18.1,60l7.1-16.3l45.4,44.5l-8.2,18.9L0,102
	l7.1-16.3L49.2,90.6z"/>
<path class="st0" d="M55,166.5c6,0,10.5,4.6,10.5,10.5S61,187.5,55,187.5s-10.5-4.6-10.5-10.5C44.7,171.1,49.2,166.5,55,166.5z
	 M46.4,177c0,4.8,3.6,8.5,8.6,8.5c5.1,0,8.8-3.7,8.8-8.5s-3.6-8.5-8.6-8.5C50.1,168.5,46.4,172.2,46.4,177z M60.8,172.6v5
	c0,2.8-1.1,4.2-3.4,4.2c-1.5,0-2.6-0.9-2.8-2.4c-0.6,2.8-4.9,1.8-5.1,2.6h-0.2v-2.9c0.6-0.7,4.1,0.4,4.1-2.4v-1.2h-4.1v-2.9H60.8z
	 M55.7,176.6c0,1.1,0.2,2.2,1.5,2.2s1.5-1.1,1.5-2.2v-1.1h-3V176.6z"/>
</svg>
