<svg xmlns="http://www.w3.org/2000/svg" width="36" height="36" fill="none">
  <path fill="#fff" d="M25.866 13.17c-.193-.416-.493-.194-.706-.153-.837.165-1.68.33-2.491.595-.722.236-1.422.565-2.093.93-1.043.567-1.867 1.425-2.626 2.35-1.003 1.225-1.709 2.653-2.525 4.008-.566.94-1.185 1.84-1.964 2.605a7.871 7.871 0 0 1-1.851 1.332c-1.085.573-2.246.82-3.444.932-.3.028-.603.041-.904.066-.545.047-.903-.255-1.174-.696-.245-.4.053-1.232.503-1.401a2.01 2.01 0 0 1 .692-.135c1.025 0 2.028-.14 2.979-.537a5.256 5.256 0 0 0 1.824-1.278 10.054 10.054 0 0 0 1.533-2.111 41.238 41.238 0 0 1 1.556-2.591c.745-1.163 1.548-2.284 2.617-3.156.6-.488 1.201-.998 1.86-1.387.637-.379 1.334-.666 2.032-.905.87-.293 1.76-.515 2.652-.727.421-.098.866-.098 1.298-.148a1.9 1.9 0 0 0 .3-.066c.226-.065.224-.227.092-.361a20.667 20.667 0 0 0-.992-.95c-.345-.312-.711-.597-.801-1.115-.058-.337.163-.877.503-1.11.326-.225.782-.217 1.069.043.74.67 1.47 1.35 2.201 2.027.611.567 1.23 1.127 1.825 1.71.453.442.458 1.05.005 1.487a364.658 364.658 0 0 1-3.317 3.13c-.248.231-.493.475-.775.65-.45.277-1.026.118-1.321-.312-.316-.466-.287-1.009.105-1.412.432-.444.882-.87 1.335-1.31l.003-.003Zm4.368 11.195c-.129.236-.21.508-.384.678-.843.825-1.712 1.623-2.57 2.429-.435.408-.882.8-1.298 1.225-.614.628-1.478.192-1.71-.515-.147-.447 0-.809.298-1.11.422-.42.872-.812 1.293-1.232.108-.11.158-.28.235-.425-.137-.06-.272-.159-.414-.172-1.424-.121-2.817-.39-4.158-.916-.697-.274-1.398-.549-2.067-.889-.381-.194-.721-.498-1.048-.797-.313-.288-.34-.678-.187-1.07.158-.403.464-.608.87-.68.407-.07.713.19 1.045.351.658.321 1.3.688 1.97.982 1.068.469 2.224.598 3.351.83.116.025.25-.051.377-.082-.06-.115-.103-.252-.19-.342-.358-.368-.732-.716-1.09-1.08-.276-.283-.43-.65-.319-1.029.14-.477.474-.839.977-.86.243-.012.524.123.735.273.34.244.64.552.953.837.564.515 1.127 1.03 1.68 1.557.461.439.92.878 1.348 1.349.142.156.187.411.303.683v.005ZM6.01 11.295c0-.696.634-1.206 1.313-1.066.887.183 1.785.326 2.667.543 1.046.257 2.041.671 2.923 1.318.658.483.708 1.141.137 1.752-.324.346-.853.395-1.338.047-.892-.647-1.924-.907-2.94-1.2-.583-.168-1.204-.19-1.807-.283-.369-.058-1.045-.59-.956-1.113v.002Z"/>
</svg>