<svg width="21" height="22" viewBox="0 0 21 22" fill="none" xmlns="http://www.w3.org/2000/svg">
<path d="M20.5607 6.19012C20.3192 5.32825 19.6079 4.64925 18.7049 4.41913C17.0669 4 10.5 4 10.5 4C10.5 4 3.93312 4 2.29512 4.41913C1.39212 4.64925 0.68075 5.32825 0.43925 6.19012C0 7.75375 0 11.014 0 11.014C0 11.014 0 14.2751 0.43925 15.8379C0.68075 16.6997 1.39212 17.3507 2.29512 17.5809C3.93312 18 10.5 18 10.5 18C10.5 18 17.0669 18 18.7049 17.5809C19.6079 17.3507 20.3201 16.6997 20.5616 15.8379C21 14.2751 21 11.014 21 11.014C21 11.014 21 7.75375 20.5607 6.19012V6.19012ZM8.35275 13.975V8.05387L13.8416 11.014L8.35188 13.975H8.35275Z" fill="black"/>
</svg>
