<svg xmlns="http://www.w3.org/2000/svg" fill="none" viewBox="0 0 20 20" role="presentation" aria-hidden="true">
  <path fill="#000" d="M7.034 17c6.036 0 9.338-5 9.338-9.338 0-.14-.002-.285-.009-.425A6.666 6.666 0 0 0 18 5.537a6.471 6.471 0 0 1-1.884.517 3.299 3.299 0 0 0 1.444-1.815 6.599 6.599 0 0 1-2.085.796 3.286 3.286 0 0 0-3.943-.645 3.284 3.284 0 0 0-1.653 3.639 9.323 9.323 0 0 1-6.763-3.43 3.188 3.188 0 0 0-.406 1.153 3.28 3.28 0 0 0 1.422 3.226 3.286 3.286 0 0 1-1.489-.408v.041a3.287 3.287 0 0 0 2.635 3.218 3.24 3.24 0 0 1-1.481.057 3.294 3.294 0 0 0 3.064 2.281A6.588 6.588 0 0 1 2 15.525c1.536.974 3.27 1.482 5.034 1.475Z"/>
</svg>