<svg width="16" height="22" viewBox="0 0 16 22" fill="none" xmlns="http://www.w3.org/2000/svg">
<path d="M13.3778 10.0402C13.3689 8.48316 14.0747 7.30866 15.5022 6.44333C14.7031 5.30251 13.496 4.67467 11.9022 4.55204C10.3929 4.43287 8.744 5.42946 8.14044 5.42946C7.50311 5.42946 6.04 4.5935 4.89244 4.5935C2.52089 4.63149 0 6.48133 0 10.2432C0 11.3546 0.204444 12.5032 0.612444 13.6881C1.15556 15.2443 3.12 19.0623 5.16889 18.9992C6.24 18.9733 6.99644 18.2393 8.39111 18.2393C9.74222 18.2393 10.4444 18.9992 11.6391 18.9992C13.7049 18.969 15.4818 15.4991 16 13.9385C13.2284 12.6362 13.3778 10.1214 13.3778 10.0402ZM10.9707 3.07442C12.1316 1.70129 12.0258 0.449073 11.9911 0C10.9671 0.0595885 9.78133 0.696063 9.10489 1.48021C8.36089 2.3205 7.92267 3.35941 8.01689 4.53045C9.12622 4.61509 10.1378 4.04684 10.9716 3.07528L10.9707 3.07442Z" fill="black"/>
</svg>
