<svg width="25" height="17" viewBox="0 0 25 17" fill="none" xmlns="http://www.w3.org/2000/svg">
<path d="M23.5907 3.50204C23.4548 3.01727 23.1901 2.57839 22.8247 2.23204C22.449 1.87504 21.9885 1.61968 21.4867 1.49004C19.6087 0.995041 12.0847 0.995041 12.0847 0.995041C8.94804 0.959353 5.81213 1.11632 2.69471 1.46504C2.1929 1.60425 1.73327 1.86533 1.35671 2.22504C0.986705 2.58104 0.718705 3.02004 0.578705 3.50104C0.242398 5.31278 0.0789971 7.15238 0.0907051 8.99504C0.0787051 10.836 0.241705 12.675 0.578705 14.489C0.715705 14.968 0.982705 15.405 1.35371 15.758C1.72471 16.111 2.18671 16.366 2.69471 16.501C4.59771 16.995 12.0847 16.995 12.0847 16.995C15.2254 17.0308 18.3653 16.8738 21.4867 16.525C21.9885 16.3954 22.449 16.14 22.8247 15.783C23.19 15.4368 23.4544 14.9978 23.5897 14.513C23.9348 12.702 24.1026 10.8616 24.0907 9.01804C24.1167 7.16664 23.9491 5.3176 23.5907 3.50104V3.50204ZM9.69271 12.419V5.57204L15.9527 8.99604L9.69271 12.419Z" fill="white"/>
</svg>
