<svg width="22" height="22" viewBox="0 0 22 22" fill="none" xmlns="http://www.w3.org/2000/svg">
<path d="M11 2C6.032 2 2 6.032 2 11C2 15.968 6.032 20 11 20C15.968 20 20 15.968 20 11C20 6.032 15.968 2 11 2ZM14.654 15.2426C14.5019 15.2426 14.4074 15.1949 14.2661 15.1112C12.0017 13.7468 9.3665 13.6892 6.7646 14.2229C6.6233 14.2589 6.4379 14.3165 6.3326 14.3165C6.25701 14.3176 6.18197 14.3035 6.11192 14.2751C6.04187 14.2467 5.97824 14.2045 5.92478 14.151C5.87133 14.0976 5.82914 14.0339 5.80072 13.9639C5.77229 13.8938 5.75821 13.8188 5.7593 13.7432C5.7593 13.3697 5.9807 13.1915 6.2534 13.1339C9.2252 12.4769 12.2627 12.5354 14.8538 14.0843C15.0752 14.2265 15.2057 14.3534 15.2057 14.6837C15.2069 14.7568 15.1935 14.8294 15.1663 14.8972C15.139 14.965 15.0986 15.0267 15.0472 15.0787C14.9958 15.1307 14.9345 15.1719 14.867 15.1999C14.7995 15.2278 14.7271 15.2421 14.654 15.2417V15.2426ZM15.6305 12.8612C15.4415 12.8612 15.3155 12.7784 15.1841 12.7091C12.9161 11.3663 9.5339 10.8263 6.5261 11.6426C6.3515 11.6894 6.2561 11.7362 6.0941 11.7362C5.90736 11.7362 5.72825 11.6621 5.59612 11.5301C5.46399 11.3982 5.38964 11.2191 5.3894 11.0324C5.3894 10.6445 5.5784 10.3871 5.9519 10.2818C7.10435 9.94336 8.30043 9.77687 9.5015 9.7877C11.8568 9.7877 14.132 10.3727 15.9248 11.4392C16.2182 11.6138 16.3343 11.8388 16.3343 12.1538C16.335 12.2466 16.3173 12.3387 16.2823 12.4247C16.2472 12.5106 16.1955 12.5888 16.13 12.6546C16.0646 12.7205 15.9868 12.7727 15.901 12.8083C15.8153 12.844 15.7233 12.8622 15.6305 12.8621V12.8612ZM16.7555 10.0964C16.5665 10.0964 16.4513 10.0496 16.2875 9.9551C13.7036 8.4125 9.0839 8.0426 6.0932 8.876C5.9627 8.912 5.7998 8.9705 5.6252 8.9705C5.51284 8.97174 5.40139 8.95034 5.29747 8.90759C5.19356 8.86483 5.09932 8.80159 5.02037 8.72163C4.94143 8.64168 4.87939 8.54664 4.83795 8.4422C4.79652 8.33775 4.77653 8.22603 4.7792 8.1137C4.7792 7.6205 5.0852 7.3406 5.411 7.247C6.689 6.8726 8.1182 6.6953 9.6752 6.6953C12.3248 6.6953 15.1004 7.247 17.1299 8.4296C17.4125 8.5934 17.5979 8.8184 17.5979 9.2495C17.5979 9.7436 17.1983 10.0955 16.7555 10.0955V10.0964Z" fill="black"/>
</svg>
